PathFileType	4	(X/Y/Z)	pose_F01_0-89.trc
DataRate	CameraRate	NumFrames	NumMarkers	Units	OrigDataRate	OrigDataStartFrame	OrigNumFrames
30	30	7	21	m	30	0	89
Frame#	Time	CHip			RHip			RKnee			RAnkle			RBigToe			RSmallToe			RHeel			LHip			LKnee			LAnkle			LBigToe			LSmallToe			LHeel			Neck			Nose			RShoulder			RElbow			RWrist			LShoulder			LElbow			LWrist			
		X1	Y1	Z1	X2	Y2	Z2	X3	Y3	Z3	X4	Y4	Z4	X5	Y5	Z5	X6	Y6	Z6	X7	Y7	Z7	X8	Y8	Z8	X9	Y9	Z9	X10	Y10	Z10	X11	Y11	Z11	X12	Y12	Z12	X13	Y13	Z13	X14	Y14	Z14	X15	Y15	Z15	X16	Y16	Z16	X17	Y17	Z17	X18	Y18	Z18	X19	Y19	Z19	X20	Y20	Z20	X21	Y21	Z21	
0	0.0	-0.23536864987414016	1.8231399618342206	-0.5581719782041095	-0.25721433280647904	1.8226517454148743	-0.5113395641966778	-0.25974347640343654	1.6896759756663953	-0.4963929500882288													-0.21798536943040467	1.8257132994741794	-0.6234689691039816	-0.23966805072875869	1.6737696594445537	-0.6041033467802065													-0.23517897961998974	1.9938126724276695	-0.602170738312886	-0.22252506182222448	2.061894365481608	-0.5753728202036688	-0.2596505763571883	1.989242284248604	-0.5045378171362563	-0.2706540440805752	1.9007228453442033	-0.4583296462292838	-0.2673415027182536	1.8108064360405034	-0.4245699589358048	-0.20309041579289688	1.9966966437149645	-0.6749430209820636	-0.19473210687381537	1.9030742279452029	-0.6927022588389473	-0.20670988774642268	1.8038802840903134	-0.6747080744051459
1	0.03333333333333333	-0.2353558991233506	1.8231993092160215	-0.5581730254313121	-0.25622234041653263	1.8226410861869495	-0.5082471388961234	-0.25974347640343654	1.6896759756663953	-0.4963929500882288													-0.21800626110536844	1.8257205385358752	-0.6234703107038613	-0.23746026575977466	1.6758971074168074	-0.6065997456471571													-0.23505234862878632	1.993721948564724	-0.6018117006822764	-0.22245907098566392	2.062000061020477	-0.5754227158415788	-0.25968714392922765	1.9893154990606428	-0.5045473404762302	-0.2706548953556834	1.9006372380295518	-0.45842328059083876	-0.26745881025947654	1.8124893652413598	-0.42467795016559334	-0.2039134868763033	1.996667488635971	-0.6779333882615459	-0.19529028051873276	1.9035351088128345	-0.6955709829547921	-0.20458891334186788	1.8070764127365666	-0.677243531032802
2	0.06666666666666667	-0.235343148372561	1.8232586565978224	-0.5581740726585147	-0.25523034802658623	1.8226304269590248	-0.5051547135955687	-0.25974347640343654	1.6896759756663953	-0.4963929500882288													-0.21802715278033222	1.825727777597571	-0.6234716523037409	-0.23525248079079064	1.6780245553890611	-0.6090961445141078													-0.2349257176375829	1.9936312247017784	-0.6014526630516668	-0.22239308014910336	2.0621057565593457	-0.5754726114794888	-0.259723711501267	1.9893887138726816	-0.504556863816204	-0.27065574663079156	1.9005516307149002	-0.4585169149523937	-0.2675761178006995	1.8141722944422163	-0.4247859413953819	-0.20473655795970974	1.9966383335569775	-0.6809237555410282	-0.19584845416365015	1.9039959896804661	-0.698439707070637	-0.20246793893731307	1.8102725413828198	-0.6797789876604581
3	0.1	-0.23533039762177144	1.8233180039796233	-0.5581751198857173	-0.2542383556366398	1.8226197677311	-0.5020622882950143	-0.25974347640343654	1.6896759756663953	-0.4963929500882288													-0.218048044455296	1.825735016659267	-0.6234729939036205	-0.23304469582180662	1.6801520033613149	-0.6115925433810584													-0.2347990866463795	1.993540500838833	-0.6010936254210572	-0.2223270893125428	2.0622114520982144	-0.5755225071173988	-0.25976027907330634	1.9894619286847204	-0.5045663871561779	-0.27065659790589974	1.9004660234002486	-0.4586105493139487	-0.2676934253419225	1.8158552236430727	-0.42489393262517045	-0.20555962904311617	1.996609178477984	-0.6839141228205106	-0.19640662780856755	1.9044568705480978	-0.7013084311864818	-0.20034696453275827	1.813468670029073	-0.6823144442881142
4	0.13333333333333333	-0.23531764687098186	1.8233773513614242	-0.55817616711292	-0.2532463632466934	1.8226091085031753	-0.4989698629944597	-0.25974347640343654	1.6896759756663953	-0.4963929500882288													-0.21806893613025977	1.8257422557209628	-0.6234743355035002	-0.2308369108528226	1.6822794513335686	-0.614088942248009													-0.23467245565517608	1.9934497769758874	-0.6007345877904475	-0.22226109847598224	2.062317147637083	-0.5755724027553089	-0.2597968466453457	1.9895351434967592	-0.5045759104961517	-0.2706574491810079	1.900380416085597	-0.45870418367550364	-0.26781073288314544	1.8175381528439292	-0.425001923854959	-0.2063827001265226	1.9965800233989905	-0.6869044900999929	-0.19696480145348494	1.9049177514157294	-0.7041771553023266	-0.19822599012820347	1.8166647986753262	-0.6848499009157702
5	0.16666666666666666	-0.2353048961201923	1.8234366987432251	-0.5581772143401226	-0.252254370856747	1.8225984492752505	-0.4958774376939052	-0.25974347640343654	1.6896759756663953	-0.4963929500882288													-0.21808982780522354	1.8257494947826587	-0.6234756771033798	-0.22862912588383857	1.6844068993058223	-0.6165853411149597													-0.23454582466397267	1.993359053112942	-0.6003755501598379	-0.22219510763942169	2.062422843175952	-0.5756222983932189	-0.25983341421738504	1.989608358308798	-0.5045854338361255	-0.2706583004561161	1.9002948087709455	-0.4587978180370586	-0.2679280404243684	1.8192210820447856	-0.42510991508474755	-0.20720577120992903	1.996550868319997	-0.6898948573794752	-0.19752297509840233	1.905378632283361	-0.7070458794181714	-0.19610501572364866	1.8198609273215793	-0.6873853575434263
6	0.2	-0.2352921453694027	1.823496046125026	-0.5581782615673252	-0.2512623784668006	1.8225877900473257	-0.49278501239335065	-0.25974347640343654	1.6896759756663953	-0.4963929500882288													-0.21811071948018732	1.8257567338443546	-0.6234770187032594	-0.22642134091485455	1.686534347278076	-0.6190817399819103													-0.23441919367276925	1.9932683292499964	-0.6000165125292283	-0.22212911680286113	2.0625285387148207	-0.5756721940311289	-0.2598699817894244	1.9896815731208368	-0.5045949571760994	-0.2706591517312243	1.900209201456294	-0.45889145239861356	-0.2680453479655914	1.820904011245642	-0.4252179063145361	-0.20802884229333546	1.9965217132410036	-0.6928852246589575	-0.19808114874331972	1.9058395131509926	-0.7099146035340163	-0.19398404131909386	1.8230570559678325	-0.6899208141710824
